<?xml version="1.0" encoding="UTF-8"?><svg xmlns="http://www.w3.org/2000/svg" viewBox="0 0 404.73 149.76"><defs><style>.d{fill:#fff;}</style></defs><g id="a"/><g id="b"><g id="c"><g><path class="d" d="M24.89,104.48c0,9.92,0,19.85,0,29.77,0,3.82-.03,7.65,.07,11.47,.07,2.69-1,4.03-3.78,4.01-5.66-.04-11.31-.01-16.97,.03-3.88,.03-4.08-2.63-4.09-5.44C.08,129.69,0,115.06,0,100.43c0-20.95,0-41.89,.09-62.84,.03-7.6,.31-7.76,7.93-7.72,3.83,.02,7.66,.24,11.48,.09,4.09-.17,6.4,1.09,5.92,5.65-.14,1.37,.34,2.81,.6,4.69,1.55-.68,2.62-1.02,3.57-1.58,23.89-14.07,48.72-13.36,73.31-3.03,14.04,5.9,18.96,18.9,19.47,33.44,.19,5.45-.02,11.02-.91,16.39-1.61,9.7-6.16,18.14-15.92,21.32-23.74,7.76-47.78,9.71-71.78,.7-2.42-.91-4.64-2.36-6.95-3.57l-1.91,.5Z"/><path class="d" d="M224.34,116.94c-9.85-1.72-19.5-2.65-28.71-5.17-21.66-5.91-32.91-24.43-29.53-46.58,2.4-15.73,11.32-26.2,25.84-31.38,20.84-7.43,42.15-7.63,63.11-.4,19.61,6.76,28.94,22.34,27.05,43.02-1.66,18.16-11.36,29.99-28.52,35.04-9.47,2.79-19.48,3.71-29.23,5.47Z"/><path class="d" d="M349.77,51.23c-4.99,0-9.99,.08-14.98-.03-2.81-.06-4.44,.81-4.39,3.92,.14,8.97-.2,17.97,.41,26.91,.6,8.66,4.89,12.31,13.7,12.54,6.32,.16,12.65,.06,18.96-.24,4.57-.22,6.91,1.07,6.36,6.14-.4,3.62-.22,7.31-.17,10.96,.03,2.96-1.4,4.25-4.26,4.18-12.12-.3-24.33,.19-36.35-1.08-15.53-1.65-23.84-11.95-23.83-27.46,0-9.98-.05-19.96,.22-29.93,.12-4.33-1.56-6.08-5.79-5.91-3.65,.15-7.32-.08-10.98,.06-3.48,.13-5.39-1.14-5.31-4.83,.09-3.99,.15-7.98,.1-11.96-.05-3.46,1.66-4.67,4.95-4.58,3.99,.11,7.99-.13,11.98-.08,3.33,.04,4.83-1.31,4.75-4.77-.11-4.82,.14-9.64,.18-14.46,.03-3.32,1.58-4.77,4.96-4.68,4.99,.13,9.99,.14,14.97-.02,3.55-.11,5.22,1.07,4.99,4.88-.25,4.14,.08,8.31-.08,12.46-.18,4.74,1.56,6.84,6.66,6.69,9.14-.27,18.3,.15,27.45,.07,3.91-.03,5.92,1.07,5.53,5.42-.33,3.63-.29,7.33,.01,10.96,.3,3.61-1.29,4.76-4.57,4.72-5.16-.07-10.32-.02-15.47-.02v.15Z"/><path class="d" d="M157.39,56.96c0,17.13-.13,34.27,.09,51.4,.06,4.65-1.64,6.27-6.1,6.05-4.32-.21-8.66-.14-12.98,.08-4.25,.22-5.88-1.38-5.86-5.78,.1-25.95-.05-51.9-.07-77.85,0-8.47,.24-16.94,.13-25.41-.05-4.18,1.84-5.6,5.77-5.45,4.49,.18,9,.34,13.48,.06,4.63-.29,5.53,1.89,5.49,5.99-.17,16.97-.07,33.93-.07,50.9h.13Z"/><path class="d" d="M392.06,115.75c-13.18-.18-12.01,2.43-11.98-12.33,.02-11.5,.39-9.29,9.53-9.46,15.21-.27,15.21-.2,15.1,14.65q-.05,7.03-7.16,7.13c-1.83,.02-3.66,0-5.49,0Z"/></g></g></g></svg>